<svg xmlns="http://www.w3.org/2000/svg" version="1.1" xmlns:xlink="http://www.w3.org/1999/xlink" xmlns:svgjs="http://svgjs.dev/svgjs" width="2000" height="535" viewBox="0 0 2000 535"><g transform="matrix(1,0,0,1,-1.2121212121212466,-0.37044554695324905)"><svg viewBox="0 0 396 106" data-background-color="#ffffff" preserveAspectRatio="xMidYMid meet" height="535" width="2000" xmlns="http://www.w3.org/2000/svg" xmlns:xlink="http://www.w3.org/1999/xlink"><g id="tight-bounds" transform="matrix(1,0,0,1,0.2400000000000091,0.07339668780755915)"><svg viewBox="0 0 395.52 105.85320662438487" height="105.85320662438487" width="395.52"><g><svg viewBox="0 0 598.1984817803506 160.09614556606184" height="105.85320662438487" width="395.52"><g><rect width="6.635981725886512" height="160.09614556606184" x="178.67082014376643" y="0" fill="#ffffff" opacity="1" stroke-width="0" stroke="transparent" fill-opacity="1" class="rect-qz-0" data-fill-palette-color="primary" rx="1%" id="qz-0" data-palette-color="#ffffff"></rect></g><g transform="matrix(1,0,0,1,202.67848178035064,0.39824911832353393)"><svg viewBox="0 0 395.52 159.29964732941477" height="159.29964732941477" width="395.52"><g id="textblocktransform"><svg viewBox="0 0 395.52 159.29964732941477" height="159.29964732941477" width="395.52" id="textblock"><g><svg viewBox="0 0 395.52 159.29964732941477" height="159.29964732941477" width="395.52"><g transform="matrix(1,0,0,1,0,0)"><svg width="395.52" viewBox="1.9999999999999996 -35.7 197.65000000000003 75.60000000000001" height="159.29964732941477" data-palette-color="#ffffff"><svg></svg><svg></svg><g class="wordmark-text-0" data-fill-palette-color="primary" id="text-0"><path d="M19.25 0.7v0c-3.333 0-6.3-0.747-8.9-2.24-2.6-1.493-4.64-3.6-6.12-6.32-1.487-2.727-2.23-5.94-2.23-9.64v0c0-3.7 0.743-6.913 2.23-9.64 1.48-2.727 3.52-4.833 6.12-6.32 2.6-1.493 5.567-2.24 8.9-2.24v0c3.333 0 6.3 0.747 8.9 2.24 2.6 1.487 4.64 3.593 6.12 6.32 1.487 2.727 2.23 5.94 2.23 9.64v0c0 3.7-0.743 6.913-2.23 9.64-1.48 2.72-3.52 4.827-6.12 6.32-2.6 1.493-5.567 2.24-8.9 2.24zM19.25-3.9v0c2.687 0 4.93-0.603 6.73-1.81 1.8-1.213 3.153-2.847 4.06-4.9 0.907-2.06 1.36-4.357 1.36-6.89v0c0-2.533-0.453-4.83-1.36-6.89-0.907-2.06-2.26-3.693-4.06-4.9-1.8-1.207-4.043-1.81-6.73-1.81v0c-2.68 0-4.92 0.603-6.72 1.81-1.8 1.207-3.157 2.84-4.07 4.9-0.907 2.06-1.36 4.357-1.36 6.89v0c0 2.533 0.453 4.83 1.36 6.89 0.913 2.053 2.27 3.687 4.07 4.9 1.8 1.207 4.04 1.81 6.72 1.81zM51.5 0h-5.05l-7.35-24.5h5.3l4.7 19.55 5.2-18.8h4.65l5.25 18.8 4.7-19.55h5.3l-7.4 24.5h-5.05l-5.1-18.1zM89.3 0.5v0c-2.887 0-5.31-0.593-7.27-1.78-1.967-1.18-3.457-2.75-4.47-4.71-1.007-1.96-1.51-4.113-1.51-6.46v0c0-2.287 0.47-4.38 1.41-6.28 0.947-1.9 2.313-3.42 4.1-4.56 1.793-1.14 3.957-1.71 6.49-1.71v0c2.033 0 3.847 0.403 5.44 1.21 1.593 0.807 2.843 1.983 3.75 3.53 0.907 1.54 1.36 3.41 1.36 5.61v0c0 0.347-0.013 0.727-0.04 1.14-0.02 0.407-0.073 0.827-0.16 1.26v0h-17.75c0.213 2.267 0.757 4.033 1.63 5.3 0.867 1.267 1.957 2.157 3.27 2.67 1.32 0.52 2.753 0.78 4.3 0.78v0c1.133 0 2.317-0.117 3.55-0.35 1.233-0.233 2.4-0.6 3.5-1.1v0l0.6 3.55c-0.947 0.413-2.103 0.833-3.47 1.26-1.373 0.427-2.95 0.64-4.73 0.64zM81.05-15.35v0h12.9c0-1.147-0.217-2.147-0.65-3-0.433-0.853-1.09-1.507-1.97-1.96-0.887-0.46-2.013-0.69-3.38-0.69v0c-2 0-3.537 0.497-4.61 1.49-1.08 0.987-1.843 2.373-2.29 4.16zM107.65 0h-4.5v-24.5h3.5l0.9 4.7-1.75-0.75c1.647-1.833 3.26-3.033 4.84-3.6 1.573-0.567 3.11-0.85 4.61-0.85v0c3.587 0 6.15 1.033 7.69 3.1 1.54 2.067 2.31 4.867 2.31 8.4v0 13.5h-4.5v-13.5c0-2.6-0.483-4.5-1.45-5.7-0.967-1.2-2.617-1.8-4.95-1.8v0c-1.647 0-3.16 0.363-4.54 1.09-1.373 0.727-2.277 1.88-2.71 3.46v0l0.55-2.75z" fill="#ffffff" fill-rule="nonzero" stroke="none" stroke-width="1" stroke-linecap="butt" stroke-linejoin="miter" stroke-miterlimit="10" stroke-dasharray="" stroke-dashoffset="0" font-family="none" font-weight="none" font-size="none" text-anchor="none" style="mix-blend-mode: normal" data-fill-palette-color="primary" opacity="1"></path><path transform="translate(0,39.4)" d="M9 0h-5v-35h11.55c2.347 0 4.413 0.373 6.2 1.12 1.787 0.753 3.173 1.963 4.16 3.63 0.993 1.667 1.49 3.867 1.49 6.6v0c0 2.68-0.497 4.86-1.49 6.54-0.987 1.673-2.373 2.9-4.16 3.68-1.787 0.787-3.853 1.18-6.2 1.18v0h-6.55zM9-30.75v14.25h5.85c2.553 0 4.467-0.58 5.74-1.74 1.273-1.16 1.91-2.947 1.91-5.36v0c0-2.433-0.603-4.233-1.81-5.4-1.207-1.167-3.153-1.75-5.84-1.75v0zM36.65 0.5v0c-1.513 0-2.837-0.31-3.97-0.93-1.133-0.613-2.013-1.453-2.64-2.52-0.627-1.067-0.94-2.283-0.94-3.65v0c0-1.387 0.303-2.573 0.91-3.56 0.613-0.993 1.43-1.82 2.45-2.48 1.027-0.66 2.173-1.183 3.44-1.57 1.267-0.393 2.58-0.677 3.94-0.85 1.36-0.18 2.663-0.277 3.91-0.29v0c0-2.333-0.457-3.86-1.37-4.58-0.92-0.713-2.247-1.07-3.98-1.07v0c-0.913 0-1.893 0.14-2.94 0.42-1.04 0.287-2.21 0.88-3.51 1.78v0l-0.65-3.65c0.987-0.753 2.213-1.367 3.68-1.84 1.467-0.473 3.007-0.71 4.62-0.71v0c2.067 0 3.733 0.363 5 1.09 1.267 0.72 2.193 1.94 2.78 3.66 0.58 1.713 0.87 4.047 0.87 7v0 5c0 1.167 0.053 2.13 0.16 2.89 0.113 0.753 0.363 1.32 0.75 1.7 0.393 0.373 1.023 0.56 1.89 0.56v0h0.45l-0.7 3.6h-0.35c-1.447 0-2.567-0.14-3.36-0.42-0.793-0.287-1.397-0.697-1.81-1.23-0.42-0.533-0.797-1.183-1.13-1.95v0c-0.913 1.067-1.997 1.933-3.25 2.6-1.247 0.667-2.663 1-4.25 1zM37.5-3.1v0c1.2 0 2.363-0.3 3.49-0.9 1.127-0.6 2.047-1.4 2.76-2.4v0-5.85c-2.38 0.08-4.31 0.313-5.79 0.7-1.473 0.38-2.55 0.953-3.23 1.72-0.687 0.767-1.03 1.76-1.03 2.98v0c0 1.313 0.353 2.267 1.06 2.86 0.713 0.593 1.627 0.89 2.74 0.89zM66.95 0.5h-4.05c-1.547 0-2.787-0.283-3.72-0.85-0.933-0.567-1.613-1.297-2.04-2.19-0.427-0.893-0.64-1.83-0.64-2.81v0-15.65h-4.2l0.4-3.5h3.8v-6.05l4.5-0.45v6.5h6.45v3.5h-6.45v12.9c0 1.567 0.093 2.7 0.28 3.4 0.18 0.7 0.633 1.14 1.36 1.32 0.727 0.187 1.897 0.28 3.51 0.28v0h1.15zM83.8 0.5h-4.05c-1.553 0-2.793-0.283-3.72-0.85-0.933-0.567-1.613-1.297-2.04-2.19-0.427-0.893-0.64-1.83-0.64-2.81v0-15.65h-4.2l0.4-3.5h3.8v-6.05l4.5-0.45v6.5h6.45v3.5h-6.45v12.9c0 1.567 0.093 2.7 0.28 3.4 0.18 0.7 0.633 1.14 1.36 1.32 0.727 0.187 1.897 0.28 3.51 0.28v0h1.15zM99.7 0.5v0c-2.88 0-5.307-0.593-7.28-1.78-1.967-1.18-3.453-2.75-4.46-4.71-1.007-1.96-1.51-4.113-1.51-6.46v0c0-2.287 0.47-4.38 1.41-6.28 0.94-1.9 2.307-3.42 4.1-4.56 1.793-1.14 3.957-1.71 6.49-1.71v0c2.033 0 3.847 0.403 5.44 1.21 1.587 0.807 2.837 1.983 3.75 3.53 0.907 1.54 1.36 3.41 1.36 5.61v0c0 0.347-0.013 0.727-0.04 1.14-0.027 0.407-0.08 0.827-0.16 1.26v0h-17.75c0.213 2.267 0.753 4.033 1.62 5.3 0.867 1.267 1.96 2.157 3.28 2.67 1.313 0.52 2.747 0.78 4.3 0.78v0c1.133 0 2.317-0.117 3.55-0.35 1.233-0.233 2.4-0.6 3.5-1.1v0l0.6 3.55c-0.953 0.413-2.113 0.833-3.48 1.26-1.36 0.427-2.933 0.64-4.72 0.64zM91.45-15.35v0h12.9c0-1.147-0.217-2.147-0.65-3-0.433-0.853-1.093-1.507-1.98-1.96-0.88-0.46-2.003-0.69-3.37-0.69v0c-2 0-3.537 0.497-4.61 1.49-1.08 0.987-1.843 2.373-2.29 4.16zM118.35 0h-4.8v-24.5h3.7l0.55 4.05c1.247-1.553 2.443-2.7 3.59-3.44 1.14-0.74 2.36-1.11 3.66-1.11v0c0.413 0 0.797 0.05 1.15 0.15v0l-0.45 4.95c-0.22-0.053-0.45-0.09-0.69-0.11-0.24-0.027-0.51-0.04-0.81-0.04v0c-1.3 0-2.497 0.287-3.59 0.86-1.087 0.58-1.857 1.21-2.31 1.89v0zM136.3 0.5v0c-2.167 0-3.963-0.26-5.39-0.78-1.42-0.513-2.423-0.97-3.01-1.37v0l0.55-4.35c0.533 0.467 1.477 1 2.83 1.6 1.347 0.6 2.953 0.9 4.82 0.9v0c1.58 0 2.793-0.267 3.64-0.8 0.84-0.533 1.26-1.283 1.26-2.25v0c0-0.853-0.27-1.54-0.81-2.06-0.54-0.527-1.19-0.943-1.95-1.25-0.76-0.313-1.473-0.56-2.14-0.74v0c-1.113-0.3-2.267-0.68-3.46-1.14-1.193-0.46-2.197-1.147-3.01-2.06-0.82-0.92-1.23-2.203-1.23-3.85v0c0-1.253 0.3-2.44 0.9-3.56 0.6-1.127 1.573-2.04 2.92-2.74 1.353-0.7 3.147-1.05 5.38-1.05v0c1.633 0 2.963 0.17 3.99 0.51 1.027 0.34 1.913 0.703 2.66 1.09v0l-0.55 4.1c-0.713-0.6-1.547-1.11-2.5-1.53-0.947-0.413-2.113-0.62-3.5-0.62v0c-1.4 0-2.54 0.263-3.42 0.79-0.887 0.52-1.33 1.357-1.33 2.51v0c0 1.147 0.47 1.963 1.41 2.45 0.947 0.48 2.377 1.013 4.29 1.6v0c0.6 0.167 1.297 0.407 2.09 0.72 0.793 0.32 1.563 0.747 2.31 1.28 0.753 0.533 1.373 1.23 1.86 2.09 0.493 0.86 0.74 1.93 0.74 3.21v0c0 1.08-0.257 2.183-0.77 3.31-0.52 1.127-1.457 2.073-2.81 2.84-1.347 0.767-3.27 1.15-5.77 1.15zM160.75 0.5v0c-2.567 0-4.753-0.57-6.56-1.71-1.813-1.147-3.197-2.68-4.15-4.6-0.96-1.927-1.44-4.073-1.44-6.44v0c0-2.367 0.48-4.513 1.44-6.44 0.953-1.927 2.337-3.46 4.15-4.6 1.807-1.14 3.993-1.71 6.56-1.71v0c2.547 0 4.73 0.57 6.55 1.71 1.82 1.14 3.207 2.673 4.16 4.6 0.96 1.927 1.44 4.073 1.44 6.44v0c0 2.367-0.48 4.513-1.44 6.44-0.953 1.92-2.34 3.453-4.16 4.6-1.82 1.14-4.003 1.71-6.55 1.71zM160.75-3.5v0c2.433 0 4.3-0.77 5.6-2.31 1.3-1.547 1.95-3.693 1.95-6.44v0c0-2.753-0.65-4.9-1.95-6.44-1.3-1.54-3.167-2.31-5.6-2.31v0c-2.413 0-4.277 0.77-5.59 2.31-1.307 1.54-1.96 3.687-1.96 6.44v0c0 2.747 0.653 4.893 1.96 6.44 1.313 1.54 3.177 2.31 5.59 2.31zM182.05 0h-4.5v-24.5h3.5l0.9 4.7-1.75-0.75c1.653-1.833 3.267-3.033 4.84-3.6 1.573-0.567 3.11-0.85 4.61-0.85v0c3.587 0 6.15 1.033 7.69 3.1 1.54 2.067 2.31 4.867 2.31 8.4v0 13.5h-4.5v-13.5c0-2.6-0.483-4.5-1.45-5.7-0.967-1.2-2.617-1.8-4.95-1.8v0c-1.647 0-3.16 0.363-4.54 1.09-1.373 0.727-2.277 1.88-2.71 3.46v0l0.55-2.75z" fill="#ffffff" fill-rule="nonzero" stroke="none" stroke-width="1" stroke-linecap="butt" stroke-linejoin="miter" stroke-miterlimit="10" stroke-dasharray="" stroke-dashoffset="0" font-family="none" font-weight="none" font-size="none" text-anchor="none" style="mix-blend-mode: normal" data-fill-palette-color="primary" opacity="1"></path></g></svg></g></svg></g></svg></g></svg></g><g transform="matrix(1,0,0,1,0,0.39824911832353393)"><svg viewBox="0 0 161.29914023306875 159.29964732941477" height="159.29964732941477" width="161.29914023306875"><g><svg xmlns="http://www.w3.org/2000/svg" xmlns:xlink="http://www.w3.org/1999/xlink" version="1.1" x="0" y="0" viewBox="11.954 12.42625 76.09199999999998 75.14875" enable-background="new 0 0 100 100" xml:space="preserve" height="159.29964732941477" width="161.29914023306875" class="icon-icon-0" data-fill-palette-color="accent" id="icon-0"><path fill="#ffffff" d="M85.997 39.752L52.049 13.09c-1.127-0.885-2.972-0.885-4.099 0L14.003 39.752c-1.127 0.885-2.049 2.783-2.049 4.215v41c0 1.434 1.173 2.607 2.606 2.607h12.193 9.767 2.915V69.182c0-6.006 4.869-10.875 10.875-10.875 6.005 0 10.875 4.869 10.875 10.875v18.393h2.296 9.768H85.44c1.434 0 2.606-1.174 2.606-2.607v-41C88.046 42.535 87.125 40.637 85.997 39.752z" data-fill-palette-color="accent"></path></svg></g></svg></g></svg></g><defs></defs></svg><rect width="395.52" height="105.85320662438487" fill="none" stroke="none" visibility="hidden"></rect></g></svg></g></svg>